<svg width="10000" height="10000" viewBox="0 0 10000 10000" fill="none" xmlns="http://www.w3.org/2000/svg">
<g style="mix-blend-mode:exclusion">
<path d="M6932.83 146.484H3050.08C2927.77 146.484 2818.34 222.461 2775.59 337.051L2057.34 2262.34H7925.57L7207.32 337.051C7164.57 222.461 7055.14 146.484 6932.83 146.484V146.484Z" fill="#838383"/>
<path d="M2041.88 2262.34L2523.97 9516.41C2536.56 9706.09 2694.1 9853.52 2884.22 9853.52C3008.98 9853.52 7212.07 9853.52 7079.32 9853.52C7269.43 9853.52 7426.97 9706.09 7439.57 9516.41L7921.66 2262.34C7644.57 2262.34 2361.54 2262.34 2041.88 2262.34V2262.34Z" fill="#EBEBEB"/>
<path d="M7201.91 2262.34L6719.84 9516.41C6707.25 9706.09 6549.71 9853.52 6359.59 9853.52H7079.32C7269.43 9853.52 7426.95 9706.09 7439.57 9516.41L7921.66 2262.34H7201.91Z" fill="#E2E2E2"/>
<path d="M8281.25 2756.03H1718.75C1643.24 2756.03 1582.03 2694.82 1582.03 2619.31V1905.37C1582.03 1829.86 1643.24 1768.65 1718.75 1768.65H8281.25C8356.76 1768.65 8417.97 1829.86 8417.97 1905.37V2619.31C8417.97 2694.82 8356.76 2756.03 8281.25 2756.03Z" fill="#BFBFBF"/>
<path d="M8281.25 1768.65H7561.52C7637.03 1768.65 7698.24 1829.86 7698.24 1905.37V2619.29C7698.24 2694.8 7637.03 2756.01 7561.52 2756.01H8281.25C8356.76 2756.01 8417.97 2694.8 8417.97 2619.29V1905.37C8417.97 1829.86 8356.76 1768.65 8281.25 1768.65Z" fill="#ACACAC"/>
<path d="M7760.96 7625.79L7968.48 4503.02C7972.23 4446.65 7927.52 4398.88 7871.04 4398.88H2092.5C2036.02 4398.88 1991.31 4446.65 1995.06 4503.02L2202.58 7625.79C2206 7677.1 2248.59 7716.96 2300.02 7716.96H7663.52C7714.94 7716.98 7757.56 7677.1 7760.96 7625.79Z" fill="#09A76D"/>
<path d="M4981.78 7004.8C5504.73 7004.8 5928.67 6580.86 5928.67 6057.9C5928.67 5534.95 5504.73 5111.01 4981.78 5111.01C4458.82 5111.01 4034.88 5534.95 4034.88 6057.9C4034.88 6580.86 4458.82 7004.8 4981.78 7004.8Z" fill="#98D5B9"/>
<path d="M7871.05 4398.88H7151.33C7207.81 4398.88 7252.52 4446.65 7248.77 4503.02L7041.23 7625.77C7037.81 7677.08 6995.21 7716.95 6943.79 7716.95H7663.52C7714.94 7716.95 7757.54 7677.06 7760.96 7625.77L7968.48 4503C7972.25 4446.65 7927.54 4398.88 7871.05 4398.88Z" fill="#02905D"/>
<path d="M8281.25 1622.17H7843.09L7344.57 285.84C7280.78 114.863 7115.31 0 6932.83 0H3050.08C2867.6 0 2702.13 114.863 2638.34 285.84L2139.82 1622.17H1718.75C1562.6 1622.17 1435.55 1749.22 1435.55 1905.37V2619.32C1435.55 2775.47 1562.6 2902.52 1718.75 2902.52H1937.62L2027.93 4261.35C1924.59 4289.75 1848.36 4384.24 1848.36 4496.43C1848.36 4501.52 1848.52 4506.68 1848.89 4512.73L2056.41 7635.51C2064.18 7752.19 2154.1 7845.53 2267.13 7860.96L2310 8506.21C2315.35 8586.95 2385.31 8648.2 2465.86 8642.66C2546.58 8637.3 2607.68 8567.5 2602.3 8486.8L2560.88 7863.46H7402.58L7293.38 9506.7C7285.92 9619.04 7191.87 9707.03 7079.3 9707.03H2884.18C2771.6 9707.03 2677.56 9619.04 2670.1 9506.7L2647.66 9168.89C2642.3 9088.16 2572.56 9027.13 2491.8 9032.44C2411.07 9037.79 2349.98 9107.6 2355.35 9188.3L2377.79 9526.13C2395.47 9791.86 2617.91 10000 2884.22 10000H7079.34C7345.64 10000 7568.09 9791.86 7585.74 9526.13L7696.41 7860.96C7809.45 7845.53 7899.36 7752.19 7907.13 7635.51L7988.73 6407.75C7994.1 6327.03 7933.01 6257.23 7852.28 6251.88C7771.31 6246.45 7701.76 6307.62 7696.41 6388.32L7617.85 7570.49H7559.18H2404.37H2345.7L2144.67 4545.37H2183.87H7779.67H7818.87L7741.72 5706.23C7736.35 5786.95 7797.44 5856.74 7878.16 5862.09C7958.75 5867.38 8028.67 5806.35 8034.02 5725.64L8114.65 4512.46C8115 4507.09 8115.18 4501.72 8115.18 4496.41C8115.18 4384.22 8038.95 4289.73 7935.61 4261.33L8025.9 2902.5H8281.25C8437.4 2902.5 8564.45 2775.45 8564.45 2619.3V1905.37C8564.45 1749.22 8437.4 1622.17 8281.25 1622.17V1622.17ZM2912.83 388.242C2934.1 331.25 2989.26 292.969 3050.08 292.969H6932.83C6993.67 292.969 7048.81 331.25 7070.08 388.242L7530.39 1622.15H2452.5L2912.83 388.242ZM7642.6 4252.4H2320.96L2231.25 2902.52H7732.32L7642.6 4252.4ZM8271.48 2609.55C8055.53 2609.55 2052.6 2609.55 1728.52 2609.55V1915.14H8271.48V2609.55Z" fill="black"/>
<path d="M3888.4 6057.9C3888.4 6660.79 4378.89 7151.26 4981.76 7151.26C5584.65 7151.26 6075.14 6660.77 6075.14 6057.9C6075.14 5455.01 5584.65 4964.52 4981.76 4964.52C4378.89 4964.52 3888.4 5455.01 3888.4 6057.9V6057.9ZM5782.17 6057.9C5782.17 6499.25 5423.11 6858.29 4981.76 6858.29C4540.41 6858.29 4181.37 6499.23 4181.37 6057.9C4181.37 5616.55 4540.43 5257.49 4981.76 5257.49C5423.12 5257.49 5782.17 5616.55 5782.17 6057.9Z" fill="black"/>
</g>
</svg>
