<svg width="509" height="205" viewBox="0 0 509 205" fill="none" xmlns="http://www.w3.org/2000/svg">
<path d="M140.012 2.56934C139.038 5.09993 137.53 9.28516 135.486 15.125C133.539 20.9648 131.203 27.924 128.478 36.0024C125.753 44.0809 122.736 53.0353 119.426 62.8657C116.214 72.5988 112.856 82.7212 109.353 93.2329C105.849 103.647 102.345 114.159 98.8408 124.768C95.4342 135.28 92.1737 145.354 89.0591 154.989C85.9445 164.625 83.0732 173.482 80.4453 181.561C77.8174 189.639 75.6274 196.452 73.8755 202C72.7075 202.195 71.4422 202.341 70.0796 202.438C68.9116 202.633 67.5003 202.73 65.8457 202.73C64.1911 202.827 62.3905 202.876 60.4438 202.876C56.356 202.876 52.0734 202.584 47.5962 202L46.7202 200.54C47.8882 198.107 49.8835 193.192 52.7061 185.794C55.5286 178.397 58.7892 169.443 62.4878 158.931C59.1785 164.09 55.5773 169.394 51.6841 174.845C47.8882 180.295 43.995 185.259 40.0044 189.736C36.1112 194.116 32.2666 197.766 28.4707 200.686C24.6748 203.509 21.2682 204.92 18.251 204.92C16.0124 204.92 13.8711 204.044 11.8271 202.292C9.7832 200.54 7.98258 198.155 6.42529 195.138C4.96533 192.121 3.7487 188.617 2.77539 184.626C1.89941 180.539 1.46143 176.159 1.46143 171.487C1.46143 167.594 2.14274 162.484 3.50537 156.157C4.868 149.831 6.66862 142.774 8.90723 134.988C11.2432 127.104 13.8711 118.782 16.791 110.022C19.7109 101.263 22.6795 92.5516 25.6968 83.8892C28.714 75.1294 31.6826 66.6616 34.6025 58.4858C37.6198 50.3101 40.2964 42.9616 42.6323 36.4404C44.9683 29.9193 46.8662 24.4688 48.3262 20.0889C49.7861 15.6117 50.6134 12.7404 50.8081 11.4751C50.8081 10.4045 50.5161 9.43115 49.9321 8.55518C46.2336 8.84717 42.6323 9.28516 39.1284 9.86914C35.6245 10.4531 32.4613 11.2318 29.6387 12.2051C28.3734 12.6917 27.0107 13.519 25.5508 14.687C24.0908 15.7576 22.7282 17.1203 21.4629 18.7749C20.1976 20.4295 19.127 22.2788 18.251 24.3228C17.4723 26.2694 17.083 28.2646 17.083 30.3086C17.083 31.5739 17.1803 33.1799 17.375 35.1265C17.5697 36.9757 17.959 38.8737 18.543 40.8203L16.791 42.5723C11.8271 38.971 7.88525 35.2238 4.96533 31.3306C2.04541 27.34 0.585449 23.6414 0.585449 20.2349C0.585449 18.2882 1.2181 16.147 2.4834 13.811C3.84603 11.4751 5.50065 9.33382 7.44727 7.38721C9.39388 5.34326 11.4865 3.63997 13.7251 2.27734C15.9637 0.914714 17.959 0.233398 19.7109 0.233398C22.7282 0.233398 25.4048 0.330729 27.7407 0.525391C30.174 0.622721 32.6559 0.768717 35.1865 0.963379C37.7171 1.15804 40.4424 1.3527 43.3623 1.54736C46.2822 1.64469 49.7861 1.69336 53.874 1.69336C55.626 1.69336 57.6213 1.69336 59.8599 1.69336C62.0985 1.59603 64.3371 1.54736 66.5757 1.54736C68.9116 1.45003 71.1502 1.3527 73.2915 1.25537C75.5301 1.15804 77.5254 1.01204 79.2773 0.817383L80.4453 2.56934C78.9854 6.65723 77.0874 11.7671 74.7515 17.8989C72.4155 23.9334 69.7876 30.6493 66.8677 38.0464C64.0451 45.4435 61.0765 53.2786 57.9619 61.5518C54.8473 69.8249 51.7327 78.1953 48.6182 86.6631C45.6009 95.0335 42.681 103.355 39.8584 111.628C37.1331 119.902 34.6999 127.737 32.5586 135.134C30.5146 142.531 28.86 149.295 27.5947 155.427C26.3294 161.462 25.6968 166.523 25.6968 170.611C25.6968 171.195 25.6968 172.168 25.6968 173.531C25.6968 174.893 25.7941 176.256 25.9888 177.619C26.2808 178.981 26.7188 180.198 27.3027 181.269C27.8867 182.339 28.7627 182.875 29.9307 182.875C30.904 182.875 32.9479 181.463 36.0625 178.641C39.1771 175.721 42.681 172.119 46.5742 167.837C50.4674 163.457 54.458 158.785 58.5459 153.821C62.6338 148.857 66.1377 144.283 69.0576 140.098C72.0749 131.435 75.1408 122.481 78.2554 113.234C81.37 103.891 84.4359 94.6929 87.4531 85.6411C90.4704 76.5894 93.293 67.9269 95.9209 59.6538C98.6462 51.3807 101.031 43.9349 103.075 37.3164C105.216 30.6979 106.919 25.1501 108.185 20.6729C109.45 16.0983 110.18 13.0324 110.375 11.4751C110.375 9.82048 109.888 8.65251 108.915 7.97119V6.21924C111.542 5.44059 113.927 4.80794 116.068 4.32129C118.307 3.7373 120.546 3.29932 122.784 3.00732C125.12 2.618 127.602 2.32601 130.23 2.13135C132.858 1.93669 135.924 1.79069 139.428 1.69336L140.012 2.56934ZM120.448 202C119.378 202.195 118.21 202.341 116.944 202.438C114.706 202.73 111.786 202.876 108.185 202.876C106.53 202.876 104.778 202.779 102.929 202.584C101.079 202.487 99.2301 202.292 97.3809 202L96.5049 200.54C96.9915 199.567 97.8675 197.571 99.1328 194.554C100.301 191.537 101.712 187.887 103.367 183.604C104.924 179.322 106.627 174.553 108.477 169.297C110.326 164.041 112.224 158.688 114.17 153.237C116.02 147.787 117.82 142.434 119.572 137.178C121.227 131.922 122.736 127.104 124.098 122.724C125.461 118.344 126.531 114.646 127.31 111.628C128.089 108.514 128.478 106.421 128.478 105.351C128.478 104.28 128.381 103.453 128.186 102.869C127.991 102.285 127.797 101.749 127.602 101.263C127.31 100.873 127.018 100.484 126.726 100.095V97.9048C128.965 96.5422 131.544 95.3255 134.464 94.2549C137.481 93.1842 140.401 92.3083 143.224 91.627C146.436 90.8483 149.793 90.167 153.297 89.583L154.027 90.459C154.027 91.335 153.784 92.6976 153.297 94.5469C152.908 96.3962 152.373 98.4888 151.691 100.825C151.01 103.063 150.28 105.399 149.501 107.833C148.723 110.266 147.944 112.553 147.166 114.694C146.484 116.836 145.852 118.685 145.268 120.242C144.781 121.799 144.489 122.821 144.392 123.308C142.25 129.051 140.158 135.085 138.114 141.412C136.07 147.738 134.075 154.065 132.128 160.391C134.367 154.843 136.702 149.247 139.136 143.602C141.666 137.859 144.197 132.36 146.728 127.104C149.258 121.751 151.837 116.738 154.465 112.066C157.191 107.297 159.819 103.209 162.349 99.8027C164.88 96.2988 167.362 93.5249 169.795 91.481C172.326 89.437 174.71 88.415 176.949 88.415C177.63 88.415 178.652 88.707 180.015 89.291C181.377 89.7777 182.789 90.5076 184.249 91.481C185.708 92.4543 187.12 93.6709 188.482 95.1309C189.942 96.4935 191.11 98.0508 191.986 99.8027C192.376 100.387 192.035 102.041 190.964 104.767C189.894 107.395 188.142 110.558 185.708 114.256C183.275 117.858 180.209 121.702 176.511 125.79C172.812 129.781 168.481 133.479 163.517 136.886L159.867 134.988C161.424 131.776 162.641 129.051 163.517 126.812C164.49 124.476 165.22 122.481 165.707 120.826C166.194 119.074 166.486 117.566 166.583 116.3C166.778 115.035 166.875 113.818 166.875 112.65C166.875 111.19 166.437 110.46 165.561 110.46C164.198 110.46 162.446 111.823 160.305 114.548C158.261 117.176 155.974 120.778 153.443 125.352C151.01 129.927 148.382 135.28 145.56 141.412C142.834 147.446 140.012 153.87 137.092 160.683C134.269 167.399 131.398 174.309 128.478 181.415C125.655 188.52 122.979 195.382 120.448 202ZM197.096 204.044C193.982 204.044 191.11 203.314 188.482 201.854C185.854 200.394 183.616 198.545 181.767 196.306C179.917 194.068 178.506 191.634 177.533 189.006C176.462 186.281 175.927 183.653 175.927 181.123C175.927 179.079 176.657 175.331 178.117 169.881C179.577 164.43 181.475 157.909 183.811 150.317C186.146 142.726 188.823 134.404 191.84 125.352C194.858 116.3 197.924 107.151 201.038 97.9048C204.153 88.6584 207.219 79.6553 210.236 70.8955C213.253 62.1357 215.93 54.252 218.266 47.2441C220.602 40.139 222.5 34.2505 223.959 29.5786C225.419 24.9067 226.149 22.0841 226.149 21.1108C226.149 18.9696 225.565 17.5096 224.397 16.731C223.327 15.855 221.916 15.4657 220.164 15.563C218.509 15.6603 216.708 16.0496 214.762 16.731C212.815 17.3149 211.014 17.9963 209.36 18.7749L207.608 14.833C217.536 9.96647 225.614 6.5599 231.843 4.61328C238.17 2.66667 242.55 1.69336 244.983 1.69336C245.664 1.69336 246.443 1.98535 247.319 2.56934C248.195 3.05599 249.022 3.78597 249.801 4.75928C250.579 5.73258 251.261 6.85189 251.845 8.11719C252.429 9.28516 252.721 10.5018 252.721 11.7671C252.721 12.5457 251.601 15.8063 249.363 21.5488C247.124 27.194 244.448 34.6398 241.333 43.8862L216.806 114.11C219.531 110.314 222.208 106.811 224.835 103.599C227.463 100.289 229.945 97.4181 232.281 94.9849C234.617 92.4543 236.856 90.5076 238.997 89.145C241.138 87.6851 243.134 86.9551 244.983 86.9551C246.248 86.9551 247.757 87.4904 249.509 88.561C251.261 89.5343 252.915 90.8483 254.473 92.5029C256.03 94.0602 257.344 95.8122 258.415 97.7588C259.583 99.7054 260.167 101.652 260.167 103.599C260.167 107.103 259.777 110.85 258.999 114.84C258.317 118.734 257.393 122.724 256.225 126.812C255.057 130.803 253.791 134.696 252.429 138.492C251.066 142.288 249.752 145.743 248.487 148.857C247.222 151.875 246.102 154.503 245.129 156.741C244.156 158.882 243.523 160.294 243.231 160.975C240.408 167.399 236.953 173.239 232.865 178.495C228.875 183.75 224.689 188.276 220.31 192.072C216.027 195.868 211.793 198.837 207.608 200.978C203.52 203.022 200.016 204.044 197.096 204.044ZM235.639 102.139C234.666 102.139 233.352 103.015 231.697 104.767C230.14 106.421 228.291 108.562 226.149 111.19C224.008 113.818 221.672 116.787 219.142 120.096C216.708 123.405 214.178 126.666 211.55 129.878C209.603 135.912 207.462 142.531 205.126 149.733C202.79 156.936 200.113 165.501 197.096 175.429C195.344 181.269 194.614 186.184 194.906 190.174C195.296 194.068 196.853 196.014 199.578 196.014C201.427 196.014 203.374 194.944 205.418 192.802C207.462 190.661 209.555 187.838 211.696 184.334C213.837 180.733 215.93 176.645 217.974 172.071C220.115 167.399 222.11 162.532 223.959 157.471C225.906 152.41 227.707 147.349 229.361 142.288C231.016 137.129 232.427 132.36 233.595 127.98C234.861 123.503 235.834 119.512 236.515 116.008C237.196 112.504 237.537 109.876 237.537 108.125C237.537 107.735 237.488 107.249 237.391 106.665C237.391 105.983 237.294 105.302 237.099 104.621C237.002 103.939 236.807 103.355 236.515 102.869C236.32 102.382 236.028 102.139 235.639 102.139ZM352.436 163.457C348.153 168.616 343.53 173.628 338.566 178.495C333.7 183.264 328.882 187.498 324.113 191.196C319.441 194.895 315.061 197.863 310.973 200.102C306.885 202.341 303.479 203.46 300.753 203.46C300.169 203.46 299.439 203.168 298.563 202.584C297.688 202.097 297.104 201.611 296.812 201.124C295.741 199.177 294.962 196.744 294.476 193.824C294.086 190.807 293.892 188.033 293.892 185.502C293.892 184.724 293.989 183.653 294.184 182.291C294.476 180.831 294.768 179.322 295.06 177.765C291.848 181.171 288.49 184.48 284.986 187.692C281.579 190.807 278.27 193.581 275.058 196.014C271.944 198.447 269.17 200.394 266.736 201.854C264.206 203.314 262.356 204.044 261.188 204.044C260.41 204.044 259.777 203.752 259.291 203.168C258.707 202.584 258.22 201.805 257.831 200.832C257.344 199.859 257.003 198.837 256.809 197.766C256.517 196.695 256.322 195.625 256.225 194.554C255.933 191.148 256.079 187.449 256.663 183.458C257.149 179.371 257.879 175.234 258.853 171.049C259.826 166.864 260.945 162.776 262.21 158.785C263.378 154.697 264.546 150.999 265.714 147.689C266.882 144.283 267.904 141.412 268.78 139.076C269.656 136.74 270.24 135.182 270.532 134.404C270.922 133.236 271.554 131.873 272.43 130.316C273.403 128.661 274.474 127.055 275.642 125.498C276.81 123.843 277.978 122.286 279.146 120.826C280.411 119.269 281.628 117.906 282.796 116.738C284.937 114.694 287.711 112.504 291.118 110.168C294.524 107.833 298.223 105.545 302.213 103.307C306.301 101.068 310.486 98.8781 314.769 96.7368C319.052 94.5955 323.091 92.7463 326.887 91.189C330.78 89.6317 334.235 88.3664 337.252 87.3931C340.27 86.4198 342.557 85.9331 344.114 85.9331C345.477 85.9331 346.645 85.9818 347.618 86.0791C348.689 86.1764 349.516 86.3224 350.1 86.5171L350.392 87.2471C349.321 88.6097 348.007 90.9456 346.45 94.2549C344.893 97.5641 343.19 101.409 341.34 105.789C339.491 110.168 337.593 114.986 335.646 120.242C333.7 125.498 331.753 130.803 329.807 136.156C327.957 141.509 326.205 146.765 324.551 151.923C322.896 156.985 321.388 161.608 320.025 165.793C318.76 169.978 317.738 173.531 316.959 176.451C316.278 179.273 315.937 181.123 315.937 181.999C315.937 183.75 316.667 184.626 318.127 184.626C319.1 184.529 320.658 183.994 322.799 183.021C324.94 181.95 327.422 180.393 330.245 178.349C333.067 176.305 336.084 173.823 339.296 170.903C342.606 167.886 345.915 164.382 349.224 160.391L352.436 163.457ZM280.752 182.875C281.531 182.875 282.553 182.437 283.818 181.561C285.083 180.685 286.446 179.565 287.906 178.203C289.366 176.84 290.923 175.283 292.578 173.531C294.232 171.681 295.838 169.832 297.396 167.983C298.369 164.576 299.439 160.829 300.607 156.741C301.873 152.653 303.187 148.468 304.549 144.186C305.912 139.903 307.323 135.62 308.783 131.338C310.243 127.055 311.654 123.016 313.017 119.22C314.477 115.327 315.84 111.823 317.105 108.708C318.37 105.497 319.49 102.82 320.463 100.679C318.906 101.165 316.862 101.895 314.331 102.869C311.8 103.745 308.978 105.399 305.863 107.833C303.235 109.876 300.753 112.942 298.417 117.03C296.082 121.118 293.94 125.741 291.994 130.9C290.047 135.961 288.246 141.217 286.592 146.667C285.035 152.118 283.672 157.179 282.504 161.851C281.433 166.523 280.606 170.514 280.022 173.823C279.438 177.132 279.146 179.127 279.146 179.809C279.146 180.587 279.195 181.317 279.292 181.999C279.487 182.583 279.973 182.875 280.752 182.875ZM358.13 202C357.059 202.195 355.891 202.341 354.626 202.438C352.387 202.73 349.467 202.876 345.866 202.876C344.212 202.876 342.46 202.779 340.61 202.584C338.761 202.487 336.96 202.292 335.208 202L334.187 200.54C334.673 199.567 335.549 197.571 336.814 194.554C337.982 191.537 339.394 187.887 341.048 183.604C342.606 179.322 344.358 174.553 346.304 169.297C348.153 164.041 350.003 158.688 351.852 153.237C353.701 147.787 355.502 142.434 357.254 137.178C359.006 131.922 360.514 127.104 361.78 122.724C363.142 118.344 364.213 114.646 364.992 111.628C365.868 108.514 366.306 106.421 366.306 105.351C366.306 104.28 366.16 103.453 365.868 102.869C365.673 102.285 365.478 101.749 365.284 101.263C364.992 100.873 364.7 100.484 364.408 100.095V97.9048C366.646 96.5422 369.274 95.3255 372.292 94.2549C375.309 93.1842 378.229 92.3083 381.051 91.627C384.263 90.8483 387.621 90.167 391.125 89.583L391.709 90.459C391.709 91.627 391.466 93.5249 390.979 96.1528C390.492 98.7808 389.908 101.603 389.227 104.621C388.546 107.638 387.816 110.606 387.037 113.526C386.356 116.349 385.82 118.636 385.431 120.388C388.448 116.592 391.514 112.796 394.629 109C397.743 105.107 400.712 101.652 403.535 98.6348C406.455 95.6175 409.131 93.1842 411.564 91.335C413.998 89.3883 416.042 88.415 417.696 88.415C418.378 88.415 419.546 88.7557 421.2 89.437C422.952 90.021 424.753 90.9943 426.602 92.3569C428.451 93.6222 430.057 95.2769 431.42 97.3208C432.88 99.2674 433.659 101.652 433.756 104.475C433.756 105.448 433.075 107.687 431.712 111.19C430.349 114.694 428.646 118.88 426.602 123.746C424.655 128.613 422.514 133.917 420.178 139.66C417.842 145.402 415.652 151.047 413.608 156.595C411.662 162.143 410.007 167.302 408.645 172.071C407.282 176.84 406.601 180.733 406.601 183.75C406.601 184.918 406.698 185.794 406.893 186.378C407.185 186.865 407.769 187.108 408.645 187.108C409.715 187.011 411.321 186.476 413.462 185.502C415.604 184.432 418.086 182.875 420.908 180.831C423.731 178.787 426.748 176.305 429.96 173.385C433.269 170.368 436.53 166.864 439.742 162.873L443.1 165.793C439.012 170.951 434.389 175.867 429.23 180.539C424.169 185.113 419.156 189.152 414.192 192.656C409.229 196.16 404.557 198.934 400.177 200.978C395.797 203.022 392.244 204.044 389.519 204.044C389.032 204.044 388.4 203.849 387.621 203.46C386.842 203.071 386.064 202.438 385.285 201.562C384.507 200.686 383.825 199.469 383.241 197.912C382.657 196.355 382.365 194.408 382.365 192.072C382.365 190.904 382.511 189.444 382.803 187.692C383.095 185.843 383.436 183.994 383.825 182.145C384.215 180.198 384.604 178.446 384.993 176.889C385.48 175.234 385.82 174.017 386.015 173.239C386.891 169.832 388.108 166.036 389.665 161.851C391.32 157.569 393.072 153.14 394.921 148.565C396.77 143.991 398.668 139.465 400.615 134.988C402.561 130.413 404.313 126.179 405.871 122.286C407.428 118.296 408.693 114.84 409.667 111.92C410.64 108.903 411.126 106.616 411.126 105.059C411.126 103.696 410.737 103.015 409.958 103.015C408.985 103.015 407.282 104.085 404.849 106.227C402.513 108.368 399.885 111.044 396.965 114.256C394.142 117.371 391.271 120.68 388.351 124.184C385.431 127.591 382.949 130.608 380.905 133.236C378.861 139.173 376.72 145.305 374.481 151.631C372.243 157.861 370.102 164.041 368.058 170.173C366.014 176.207 364.116 181.95 362.364 187.4C360.709 192.851 359.298 197.717 358.13 202ZM508.798 38.1924C507.63 40.9176 506.267 44.1782 504.71 47.9741C503.25 51.77 501.644 55.9066 499.892 60.3838C498.14 64.861 496.291 69.6302 494.344 74.6914C492.495 79.7526 490.548 84.9111 488.504 90.167L508.798 89.583L506.17 96.4448L486.022 96.7368C482.713 105.594 479.501 114.451 476.387 123.308C473.272 132.068 470.45 140.244 467.919 147.835C465.486 155.427 463.49 162.094 461.933 167.837C460.473 173.579 459.743 177.813 459.743 180.539C459.743 182.193 459.938 183.361 460.327 184.042C460.716 184.626 461.544 184.918 462.809 184.918C463.588 184.918 465.194 184.237 467.627 182.875C470.158 181.415 473.029 179.371 476.241 176.743C479.55 174.115 482.957 170.951 486.46 167.253C490.062 163.554 493.42 159.466 496.534 154.989L499.746 158.055C496.34 163.019 492.203 168.226 487.336 173.677C482.567 179.03 477.652 183.994 472.591 188.568C467.53 193.046 462.566 196.744 457.699 199.664C452.93 202.584 448.842 204.044 445.436 204.044C444.949 204.044 444.024 203.801 442.662 203.314C441.299 202.925 440.228 202.292 439.45 201.416C438.866 200.637 438.233 198.983 437.552 196.452C436.773 193.922 436.384 190.612 436.384 186.524C436.384 183.702 437.162 179.176 438.72 172.947C440.18 166.718 442.175 159.515 444.706 151.339C447.139 143.164 449.913 134.404 453.027 125.06C456.239 115.619 459.5 106.275 462.809 97.0288L446.02 97.3208L448.355 91.043L464.853 90.751L483.103 41.4043C484.952 40.723 487.288 40.139 490.11 39.6523C492.933 39.1657 495.707 38.7277 498.432 38.3384C501.644 37.9491 504.905 37.6084 508.214 37.3164C508.214 37.5111 508.311 37.6571 508.506 37.7544C508.701 37.8517 508.798 37.9977 508.798 38.1924Z" fill="black"/>
</svg>
